<?xml version="1.0" encoding="UTF-8" standalone="no"?>
<!DOCTYPE svg PUBLIC "-//W3C//DTD SVG 1.1//EN" "http://www.w3.org/Graphics/SVG/1.1/DTD/svg11.dtd">
<svg width="100%" height="100%" viewBox="0 0 76 76" version="1.1" xmlns="http://www.w3.org/2000/svg" xmlns:xlink="http://www.w3.org/1999/xlink" xml:space="preserve" xmlns:serif="http://www.serif.com/" style="fill-rule:evenodd;clip-rule:evenodd;stroke-linejoin:round;stroke-miterlimit:2;">
    <g transform="matrix(1.11689,0,0,1.23954,-2.41596,-11.3051)">
        <g id="macOS-background" serif:id="macOS background">
            <path d="M65.733,23.803L65.733,55.75C65.733,61.628 60.437,66.4 53.914,66.4L18.458,66.4C11.936,66.4 6.64,61.628 6.64,55.75L6.64,23.803C6.64,17.926 11.936,13.154 18.458,13.154L53.914,13.154C60.437,13.154 65.733,17.926 65.733,23.803Z" style="fill:white;"/>
        </g>
    </g>
    <g id="Punch-clock" serif:id="Punch clock" transform="matrix(1.24971,0,0,1.24971,8.00688,9.50653)">
        <g transform="matrix(2.1677,0,0,1.78839,5.98129,-37.0364)">
            <ellipse cx="8.306" cy="36.143" rx="5.161" ry="6.264" style="fill:white;"/>
        </g>
        <g transform="matrix(1.42492,0,0,1.2985,6.52445,-10.6218)">
            <rect x="5.55" y="11.873" width="13.478" height="6.162" style="fill:white;"/>
        </g>
        <g>
            <path d="M37.2,12L36,12L36,2.4L12,2.4L12,12L10.8,12C8.808,12 7.2,13.608 7.2,15.6L7.2,39.6C7.2,41.592 8.808,43.2 10.8,43.2L37.2,43.2C39.192,43.2 40.8,41.592 40.8,39.6L40.8,15.6C40.8,13.608 39.192,12 37.2,12ZM15.6,6L32.4,6L32.4,12L15.6,12L15.6,6ZM24,37.2C18.696,37.2 14.4,32.904 14.4,27.6C14.4,22.296 18.696,18 24,18C29.304,18 33.6,22.296 33.6,27.6C33.6,32.904 29.304,37.2 24,37.2Z" style="fill:rgb(0,0,128);fill-rule:nonzero;"/>
            <path d="M25.2,22.8L22.8,22.8L22.8,28.104L26.76,32.04L28.44,30.36L25.2,27.096L25.2,22.8Z" style="fill-rule:nonzero;"/>
        </g>
    </g>
</svg>
